#!OML:ASF E:\motion texture\Top Level 1\Subject 1\Session 1\male.ASF
:FULLY-SPECIFIED
:DEGREES
557
root -40.7598 17.5977 1.87254 78.4607 -85.5053 -68.7876
lowerback 5.51644 -2.19709 4.99869
upperback 4.83977 -3.02209 4.34623
thorax 1.90666 -1.54665 1.80075
lowerneck -16.3828 0.0814867 -3.0951
upperneck 16.0196 -0.269313 5.55756
head 7.6444 0.194605 2.31225
rclavicle 1.55052e-014 1.12115e-013
rhumerus 1.14823 25.2947 -88.8064
rradius 80.6676
rwrist 29.205
rhand -31.8677 -31.2251
rfingers 7.12502
rthumb -5.121 -61.1432
lclavicle 1.55052e-014 1.12115e-013
lhumerus 3.09585 -24.9439 109.918
lradius 72.2196
lwrist 36.0025
lhand -17.4632 37.0012
lfingers 7.12502
lthumb 8.78833 66.7983
rfemur -36.0342 -7.67791 29.6746
rtibia 34.0105
rfoot -4.06306 -6.73176
rtoes 22.6682
lfemur -25.2495 1.91968 -14.2251
ltibia 59.811
lfoot -6.565 1.02541
ltoes -18.319
558
root -40.9004 17.6157 1.87688 85.927 -85.5733 -76.0829
lowerback 5.61318 -2.20578 5.07845
upperback 4.95087 -3.04287 4.43277
thorax 1.97095 -1.55968 1.849
lowerneck -16.3231 0.242811 -2.99983
upperneck 15.9523 -0.0363518 5.38536
head 7.60059 0.294152 2.26371
rclavicle -2.70347e-014 -3.26007e-014
rhumerus 0.0818946 24.7126 -89.3787
rradius 80.8806
rwrist 28.3952
rhand -31.951 -31.5979
rfingers 7.12502
rthumb -5.2014 -61.5141
lclavicle -2.70347e-014 -3.26007e-014
lhumerus 2.79703 -25.4229 109.932
lradius 71.9518
lwrist 35.845
lhand -17.635 37.0925
lfingers 7.12502
lthumb 8.62256 66.8964
rfemur -35.7069 -7.52372 29.8598
rtibia 34.0344
rfoot -4.49401 -6.50036
rtoes 22.3819
lfemur -26.2977 2.24242 -14.2269
ltibia 59.8966
lfoot -6.71057 1.55351
ltoes -18.1175
559
root -41.0402 17.6333 1.88197 93.418 -85.5722 -83.4033
lowerback 5.70311 -2.21431 5.15522
upperback 5.05436 -3.06331 4.51535
thorax 2.03112 -1.57253 1.89476
lowerneck -16.2604 0.410477 -2.90227
upperneck 15.8875 0.205807 5.20509
head 7.55743 0.397567 2.21302
rclavicle -5.1684e-015 -2.06736e-014
rhumerus -0.948607 24.0783 -89.9205
rradius 81.1052
rwrist 27.4915
rhand -31.9803 -31.9772
rfingers 7.12502
rthumb -5.2297 -61.8927
lclavicle -5.1684e-015 -2.06736e-014
lhumerus 2.51613 -25.8918 109.943
lradius 71.6485
lwrist 35.7278
lhand -17.7612 37.1819
lfingers 7.12502
lthumb 8.50075 66.9908
rfemur -35.371 -7.36955 30.0245
rtibia 34.0423
rfoot -4.92077 -6.28184
rtoes 22.0694
lfemur -27.3214 2.54667 -14.2317
ltibia 59.8642
lfoot -6.89176 2.07985
ltoes -17.9018
560
root -41.1794 17.6504 1.88775 100.749 -85.5067 -90.5635
lowerback 5.78446 -2.22154 5.2266
upperback 5.15086 -3.08209 4.593
thorax 2.08883 -1.58452 1.93816
lowerneck -16.1978 0.582861 -2.79974
upperneck 15.826 0.454475 5.01595
head 7.51591 0.503714 2.15922
rclavicle -6.36111e-015 6.91771e-014
rhumerus -1.94116 23.393 -90.4302
rradius 81.3427
rwrist 26.4974
rhand -31.9469 -32.3614
rfingers 7.12502
rthumb -5.19742 -62.2777
lclavicle -6.36111e-015 6.91771e-014
lhumerus 2.25452 -26.3517 109.948
lradius 71.3127
lwrist 35.6492
lhand -17.8421 37.2672
lfingers 7.12502
lthumb 8.42273 67.0792
rfemur -35.029 -7.21119 30.1655
rtibia 34.0384
rfoot -5.34477 -6.07396
rtoes 21.7282
lfemur -28.3178 2.83427 -14.2408
ltibia 59.7136
lfoot -7.10155 2.60125
ltoes -17.6726
561
root -41.3181 17.6669 1.89425 107.686 -85.3803 -97.3326
lowerback 5.85775 -2.2289 5.29537
upperback 5.24013 -3.10097 4.66684
thorax 2.14347 -1.59649 1.97893
lowerneck -16.1307 0.761888 -2.69458
upperneck 15.7654 0.712778 4.81836
head 7.47438 0.613925 2.10308
rclavicle -2.26615e-014 -1.98785e-014
rhumerus -2.89681 22.6597 -90.9063
rradius 81.5968
rwrist 25.4047
rhand -31.8588 -32.7502
rfingers 7.12502
rthumb -5.11239 -62.6685
lclavicle -2.26615e-014 -1.98785e-014
lhumerus 2.01165 -26.8036 109.95
lradius 70.9492
lwrist 35.6073
lhand -17.8774 37.353
lfingers 7.12502
lthumb 8.38865 67.1664
rfemur -34.6781 -7.05345 30.2851
rtibia 34.0221
rfoot -5.76525 -5.87602
rtoes 21.3665
lfemur -29.2824 3.10188 -14.2503
ltibia 59.4456
lfoot -7.33556 3.1113
ltoes -17.4258
562
root -41.4563 17.6829 1.90133 114.114 -85.2023 -103.596
lowerback 5.92589 -2.23626 5.35815
upperback 5.32204 -3.11957 4.73678
thorax 2.1934 -1.60837 2.01895
lowerneck -16.063 0.947522 -2.58767
upperneck 15.7083 0.98018 4.61575
head 7.43444 0.728267 2.04591
rclavicle -9.93923e-015 6.36111e-015
rhumerus -3.81643 21.8818 -91.3478
rradius 81.8698
rwrist 24.217
rhand -31.6931 -33.1236
rfingers 7.12502
rthumb -4.95242 -63.0457
lclavicle -9.93923e-015 6.36111e-015
lhumerus 1.78771 -27.2474 109.949
lradius 70.5609
lwrist 35.5913
lhand -17.8687 37.4357
lfingers 7.12502
lthumb 8.39703 67.2488
rfemur -34.3192 -6.89422 30.3813
rtibia 33.9961
rfoot -6.1817 -5.69098
rtoes 20.9874
lfemur -30.2124 3.35067 -14.2601
ltibia 59.0633
lfoot -7.589 3.60586
ltoes -17.1714
563
root -41.5941 17.698 1.90899 120 -84.9806 -109.318
lowerback 5.98489 -2.24243 5.41472
upperback 5.39676 -3.13662 4.80258
thorax 2.24097 -1.61944 2.05784
lowerneck -15.9927 1.13918 -2.4775
upperneck 15.652 1.25598 4.40617
head 7.395 0.846303 1.98667
rclavicle -3.77691e-014 2.94201e-014
rhumerus -4.69755 21.0644 -91.7516
rradius 82.1629
rwrist 22.9216
rhand -31.4457 -33.4749
rfingers 7.12502
rthumb -4.71353 -63.4025
lclavicle -3.77691e-014 2.94201e-014
lhumerus 1.58469 -27.6852 109.943
lradius 70.1501
lwrist 35.5925
lhand -17.8304 37.501
lfingers 7.12502
lthumb 8.43399 67.3126
rfemur -33.9582 -6.73268 30.4554
rtibia 33.9658
rfoot -6.59492 -5.51997
rtoes 20.5896
lfemur -31.1097 3.58321 -14.2696
ltibia 58.5715
lfoot -7.85667 4.08234
ltoes -16.9211
564
root -41.7318 17.7123 1.91736 125.265 -84.7207 -114.425
lowerback 6.03781 -2.24921 5.47351
upperback 5.46482 -3.15407 4.86492
thorax 2.28471 -1.6305 2.09183
lowerneck -15.9224 1.3376 -2.36281
upperneck 15.5985 1.54094 4.18917
head 7.35727 0.968463 1.92515
rclavicle -5.12864e-014 7.95139e-016
rhumerus -5.5439 20.2107 -92.1179
rradius 82.4791
rwrist 21.5266
rhand -31.0916 -33.7613
rfingers 7.12502
rthumb -4.37162 -63.6962
lclavicle -5.12864e-014 7.95139e-016
lhumerus 1.40155 -28.1168 109.934
lradius 69.7192
lwrist 35.5964
lhand -17.7716 37.5428
lfingers 7.12502
lthumb 8.49079 67.3521
rfemur -33.5882 -6.57732 30.5136
rtibia 33.9277
rfoot -7.00509 -5.35903
rtoes 20.1789
lfemur -31.9669 3.7969 -14.2723
ltibia 57.9704
lfoot -8.12971 4.53573
ltoes -16.691
565
root -41.8693 17.7258 1.9263 129.972 -84.4323 -118.976
lowerback 6.08305 -2.25546 5.52844
upperback 5.52513 -3.17053 4.92389
thorax 2.32459 -1.641 2.12427
lowerneck -15.8523 1.54081 -2.2408
upperneck 15.5483 1.83193 3.96356
head 7.32167 1.0933 1.8602
rclavicle 7.95139e-015 3.65764e-014
rhumerus -6.356 19.3242 -92.4455
rradius 82.8198
rwrist 20.0257
rhand -30.6878 -34.0409
rfingers 7.12502
rthumb -3.98165 -63.9835
lclavicle 7.95139e-015 3.65764e-014
lhumerus 1.238 -28.5425 109.922
lradius 69.2694
lwrist 35.5886
lhand -17.7023 37.5395
lfingers 7.12502
lthumb 8.55761 67.3461
rfemur -33.2141 -6.42384 30.5534
rtibia 33.8853
rfoot -7.41326 -5.2109
rtoes 19.7575
lfemur -32.7871 3.99409 -14.27
ltibia 57.2644
lfoot -8.39784 4.96373
ltoes -16.4857
566
root -42.0099 17.7972 1.9214 139.314 -83.741 -128.136
lowerback 6.70443 -2.47852 5.34892
upperback 5.98366 -3.48463 4.87186
thorax 2.46815 -1.81253 2.20426
lowerneck -15.5522 1.81749 -1.83972
upperneck 15.4568 2.20192 3.46542
head 7.23832 1.24448 1.66441
rclavicle 5.64548e-014 5.24792e-014
rhumerus -7.13613 23.0193 -90.7517
rradius 82.327
rwrist 22.9603
rhand -33.3063 -30.5852
rfingers 7.12502
rthumb -6.50994 -60.4652
lclavicle 5.64548e-014 5.24792e-014
lhumerus -0.236216 -26.8868 109.964
lradius 68.4359
lwrist 40.0914
lhand -19.0405 36.4353
lfingers 7.12502
lthumb 7.26609 66.2905
rfemur -32.8556 -6.48556 30.6216
rtibia 34.011
rfoot -7.70185 -4.21951
rtoes 20.4263
lfemur -35.2231 4.11555 -14.3837
ltibia 60.914
lfoot -10.9937 9.38051
ltoes -15.922
567
root -42.1429 17.8138 1.93304 143.289 -83.2828 -131.9
lowerback 6.71525 -2.40653 5.42975
upperback 6.00356 -3.39326 4.91476
thorax 2.48232 -1.76742 2.19977
lowerneck -15.4694 1.97283 -1.77683
upperneck 15.3528 2.42698 3.32432
head 7.18615 1.34293 1.62865
rclavicle 7.15625e-015 3.18055e-015
rhumerus -8.2313 21.5305 -91.3354
rradius 82.6703
rwrist 23.3298
rhand -34.7192 -33.1991
rfingers 7.12502
rthumb -7.87379 -63.0325
lclavicle 7.15625e-015 3.18055e-015
lhumerus -0.522048 -27.3394 110.121
lradius 68.1878
lwrist 40.6888
lhand -18.7529 36.4326
lfingers 7.12502
lthumb 7.54366 66.2781
rfemur -32.516 -6.35314 30.6727
rtibia 33.8728
rfoot -8.05383 -4.01395
rtoes 20.0771
lfemur -36.0385 4.30469 -14.3207
ltibia 59.7546
lfoot -11.254 9.83474
ltoes -15.8395
568
root -42.2724 17.8292 1.94412 146.743 -82.787 -135.192
lowerback 6.84345 -2.32605 5.51176
upperback 5.97543 -3.27415 4.95491
thorax 2.38065 -1.70989 2.19712
lowerneck -15.4969 2.06456 -1.72405
upperneck 15.4391 2.56474 3.17736
head 7.21796 1.39804 1.58809
rclavicle -1.19271e-015 5.88403e-014
rhumerus -9.42495 19.8797 -91.9043
rradius 83.1961
rwrist 23.6368
rhand -36.416 -35.6769
rfingers 7.12502
rthumb -9.51119 -65.4422
lclavicle -1.19271e-015 5.88403e-014
lhumerus -0.656759 -28.0995 110.126
lradius 67.8306
lwrist 41.3675
lhand -18.3132 36.1898
lfingers 7.12502
lthumb 7.9681 66.0196
rfemur -32.1628 -6.2103 30.7292
rtibia 33.7795
rfoot -8.44792 -3.88264
rtoes 19.1934
lfemur -36.7826 4.51471 -14.2232
ltibia 58.5497
lfoot -11.7336 10.22
ltoes -16.5414
569
root -42.409 17.843 1.96249 149.069 -82.4423 -137.374
lowerback 6.8277 -2.29296 5.68137
upperback 6.02919 -3.23568 4.96981
thorax 2.43986 -1.68683 2.11495
lowerneck -15.4067 2.24647 -1.5785
upperneck 15.2877 2.81161 3.01378
head 7.15111 1.51024 1.53284
rclavicle -1.35174e-014 2.94201e-014
rhumerus -10.4577 17.7559 -92.4969
rradius 83.9155
rwrist 23.8649
rhand -37.546 -38.535
rfingers 7.12502
rthumb -10.6014 -68.2476
lclavicle -1.35174e-014 2.94201e-014
lhumerus -0.897053 -28.6435 110.353
lradius 67.6221
lwrist 41.5613
lhand -18.0026 36.534
lfingers 7.12502
lthumb 8.26786 66.3523
rfemur -31.7317 -6.43952 30.7507
rtibia 33.5954
rfoot -8.86285 -3.65189
rtoes 18.5295
lfemur -37.4315 4.51543 -14.2005
ltibia 57.1862
lfoot -12.0238 10.3832
ltoes -16.3915
570
root -42.545 17.8557 1.97316 151.027 -82.0295 -139.156
lowerback 6.68071 -2.21635 5.79572
upperback 6.1628 -3.16802 5.03656
thorax 2.66246 -1.65121 2.10829
lowerneck -15.8164 2.27372 -1.47096
upperneck 15.3638 2.86792 2.81031
head 7.2504 1.52769 1.46307
rclavicle 1.70955e-014 -5.64548e-014
rhumerus -11.215 15.7991 -92.8954
rradius 84.7076
rwrist 22.9364
rhand -37.2369 -41.8928
rfingers 7.12502
rthumb -10.3032 -71.6204
lclavicle 1.70955e-014 -5.64548e-014
lhumerus -0.82581 -29.3144 110.411
lradius 67.3388
lwrist 41.0314
lhand -17.2342 36.7022
lfingers 7.12502
lthumb 9.00939 66.4898
rfemur -31.3278 -6.39625 30.8161
rtibia 33.4263
rfoot -9.324 -3.65603
rtoes 17.9509
lfemur -38.2407 4.70913 -14.0343
ltibia 55.9948
lfoot -12.2837 10.3552
ltoes -16.8469
571
root -42.6795 17.8635 1.98682 153.856 -81.6459 -141.781
lowerback 6.80084 -2.16468 5.79634
upperback 6.05071 -3.07595 5.04712
thorax 2.47836 -1.60816 2.12209
lowerneck -15.5424 2.52142 -1.40318
upperneck 15.2781 3.22311 2.61198
head 7.1712 1.68213 1.41839
rclavicle -1.11319e-014 -1.11319e-014
rhumerus -12.355 13.7969 -93.4606
rradius 85.7581
rwrist 20.8585
rhand -37.4763 -43.6793
rfingers 7.12502
rthumb -10.5341 -73.3953
lclavicle -1.11319e-014 -1.11319e-014
lhumerus -1.01502 -30.2471 110.466
lradius 66.982
lwrist 41.2509
lhand -16.817 36.6017
lfingers 7.12502
lthumb 9.41188 66.3716
rfemur -31.014 -6.29486 30.6912
rtibia 33.314
rfoot -9.7518 -3.60151
rtoes 17.252
lfemur -38.8871 4.83723 -14.0414
ltibia 54.5039
lfoot -12.4463 10.2771
ltoes -17.4517
